<?xml version="1.0" encoding="UTF-8" standalone="no"?>
<!-- Created with Inkscape (http://www.inkscape.org/) -->

<svg
   width="36"
   height="18.127213"
   viewBox="0 0 9.5249997 4.7961582"
   version="1.1"
   id="svg5"
   inkscape:version="1.1.2 (0a00cf5339, 2022-02-04)"
   sodipodi:docname="observe_logo_quasar_xs.svg"
   inkscape:export-filename="/home/chris/Desktop/observe_quasar/web-interface-angular/src/assets/observe_logo_quasar_xs.png"
   inkscape:export-xdpi="96"
   inkscape:export-ydpi="96"
   xmlns:inkscape="http://www.inkscape.org/namespaces/inkscape"
   xmlns:sodipodi="http://sodipodi.sourceforge.net/DTD/sodipodi-0.dtd"
   xmlns="http://www.w3.org/2000/svg"
   xmlns:svg="http://www.w3.org/2000/svg">
  <sodipodi:namedview
     id="namedview7"
     pagecolor="#ffffff"
     bordercolor="#666666"
     borderopacity="1.0"
     inkscape:pageshadow="2"
     inkscape:pageopacity="0.0"
     inkscape:pagecheckerboard="0"
     inkscape:document-units="mm"
     showgrid="false"
     inkscape:zoom="9.4208887"
     inkscape:cx="33.754777"
     inkscape:cy="18.045007"
     inkscape:window-width="1920"
     inkscape:window-height="1022"
     inkscape:window-x="0"
     inkscape:window-y="0"
     inkscape:window-maximized="1"
     inkscape:current-layer="layer1"
     showguides="true"
     inkscape:guide-bbox="true"
     fit-margin-top="0"
     fit-margin-left="0"
     fit-margin-right="0"
     fit-margin-bottom="0"
     units="px">
    <inkscape:grid
       type="xygrid"
       id="grid55"
       originx="-42.845167"
       originy="-91.301599" />
    <sodipodi:guide
       position="116.28194,61.89286"
       orientation="1,0"
       id="guide2460" />
    <sodipodi:guide
       position="9.5814416,59.4897"
       orientation="1,0"
       id="guide2462" />
  </sodipodi:namedview>
  <defs
     id="defs2">
    <inkscape:path-effect
       effect="powerclip"
       id="path-effect2091"
       is_visible="true"
       lpeversion="1"
       inverse="true"
       flatten="false"
       hide_clip="false"
       message="Use fill-rule evenodd on &lt;b&gt;fill and stroke&lt;/b&gt; dialog if no flatten result after convert clip to paths." />
    <inkscape:path-effect
       effect="powerclip"
       id="path-effect2087"
       is_visible="true"
       lpeversion="1"
       inverse="true"
       flatten="false"
       hide_clip="false"
       message="Use fill-rule evenodd on &lt;b&gt;fill and stroke&lt;/b&gt; dialog if no flatten result after convert clip to paths." />
    <linearGradient
       id="linearGradient166897"
       inkscape:swatch="solid">
      <stop
         style="stop-color:#000000;stop-opacity:1;"
         offset="0"
         id="stop166895" />
    </linearGradient>
    <clipPath
       clipPathUnits="userSpaceOnUse"
       id="clipPath971">
      <path
         style="fill:none;stroke:#000000;stroke-width:0.264583px;stroke-linecap:butt;stroke-linejoin:miter;stroke-opacity:1"
         d="m -82.388588,257.78647 c 64.350304,-74.72641 64.350304,-74.72641 64.350304,-74.72641"
         id="path973" />
    </clipPath>
    <clipPath
       clipPathUnits="userSpaceOnUse"
       id="clipPath1679">
      <rect
         style="fill:#888a85;stroke:none;stroke-width:4.265;stroke-linecap:round;stroke-linejoin:round;stroke-opacity:0.0921056"
         id="rect1681"
         width="63.884678"
         height="62.670166"
         x="-13.511797"
         y="136.95663"
         transform="rotate(44.901425)" />
    </clipPath>
    <clipPath
       clipPathUnits="userSpaceOnUse"
       id="clipPath2083">
      <rect
         style="display:none;fill:#888a85;stroke:none;stroke-width:4.265;stroke-linecap:round;stroke-linejoin:round;stroke-opacity:0.0921056"
         id="rect2085"
         width="131.81084"
         height="27.720934"
         x="-114.16321"
         y="114.77383"
         transform="rotate(-38.534407)"
         d="M -114.16321,114.77383 H 17.647629 v 27.72093 H -114.16321 Z" />
    </clipPath>
    <clipPath
       clipPathUnits="userSpaceOnUse"
       id="clipath_lpe_path-effect2091">
      <rect
         style="display:block;fill:#888a85;stroke:none;stroke-width:4.265;stroke-linecap:round;stroke-linejoin:round;stroke-opacity:0.0921056"
         id="rect2093"
         width="131.81084"
         height="27.720934"
         x="-114.16321"
         y="114.77383"
         transform="rotate(-38.534407)" />
    </clipPath>
  </defs>
  <g
     inkscape:label="Layer 1"
     inkscape:groupmode="layer"
     id="layer1"
     transform="translate(-42.845175,-91.301628)">
    <rect
       style="display:none;fill:#808080;stroke-width:0.264583"
       id="rect31"
       width="210.36803"
       height="297.71854"
       x="-0.14457904"
       y="-0.01382328" />
    <rect
       style="opacity:0;fill:#630000;fill-opacity:1;stroke-width:0.0202705;stroke-miterlimit:4;stroke-dasharray:none"
       id="rect101"
       width="9.5249996"
       height="9.5249996"
       x="42.854202"
       y="88.899994"
       inkscape:export-filename="/home/chris/Documents/BlackmagicDesign/rect101.png"
       inkscape:export-xdpi="12.799999"
       inkscape:export-ydpi="12.799999" />
    <path
       style="opacity:0;fill:#860000;fill-opacity:1;stroke-width:1.71106;stroke-linecap:round;stroke-linejoin:round"
       d="M -0.1061471,18.045007 V 0 H 17.93886 35.983866 V 18.045007 36.090013 H 17.93886 -0.1061471 Z"
       id="path29513"
       transform="matrix(0.26458333,0,0,0.26458333,42.862495,88.899994)" />
    <path
       style="opacity:0;fill:#860000;fill-opacity:1;stroke-width:1.71106;stroke-linecap:round;stroke-linejoin:round"
       d="M -0.1061471,18.045007 V 0 H 17.93886 35.983866 V 18.045007 36.090013 H 17.93886 -0.1061471 Z"
       id="path30033"
       transform="matrix(0.26458333,0,0,0.26458333,42.862495,88.899994)" />
    <path
       style="opacity:0;fill:#860000;fill-opacity:1;stroke-width:1.71106;stroke-linecap:round;stroke-linejoin:round"
       d="M 9.4470918,25.472063 C 8.1602107,25.299742 6.8237781,24.782854 5.9442375,24.117278 5.2861502,23.619281 4.4525621,22.681371 4.0102482,21.941251 1.7708123,18.194025 3.0697789,13.423342 6.8995614,11.329742 7.6215273,10.93507 8.5724798,10.639815 9.6003079,10.491207 c 0.8025411,-0.116036 1.0649491,-0.109852 1.9824971,0.04672 2.586206,0.441317 4.427974,1.774052 6.371625,4.610622 0.829704,1.210871 1.20411,1.788793 1.326324,2.04728 0.341116,0.721464 2.27763,3.333166 2.896791,3.906788 2.346899,2.174293 5.923042,1.587091 7.254325,-1.191158 0.454075,-0.947607 0.591801,-2.12783 0.341674,-2.927924 -0.0091,-0.02919 -0.05583,-0.196372 -0.103794,-0.371515 -0.242869,-0.886898 -1.086847,-1.936438 -2.018431,-2.510048 -1.213323,-0.747087 -3.225205,-0.677783 -4.655396,0.160365 -0.497394,0.291492 -1.817154,1.634082 -1.999331,2.033917 -0.0629,0.138057 -0.171575,0.272966 -0.241493,0.299796 -0.140376,0.05387 -1.06651,-1.108437 -1.497144,-1.878927 -0.15106,-0.270275 -0.318589,-0.518562 -0.372287,-0.551749 -0.194099,-0.11996 -0.08327,-0.283643 0.778082,-1.149141 0.989233,-0.993994 1.591621,-1.43304 2.582833,-1.882477 1.740254,-0.789069 4.113078,-0.880079 5.882398,-0.22562 2.20387,0.815196 4.143384,2.983467 4.627374,5.173148 0.796724,3.604574 -0.748586,7.020379 -3.911769,8.646708 -2.438314,1.253642 -5.3597,1.039603 -7.774387,-0.569602 -0.701292,-0.467357 -1.859482,-1.577254 -2.336438,-2.239015 -0.16831,-0.233524 -0.334944,-0.448472 -0.370299,-0.477662 -0.110344,-0.0911 -1.329989,-1.934785 -1.966138,-2.972119 -2.248548,-3.666593 -3.729266,-4.882766 -5.94487,-4.882766 -2.2915231,0 -4.2474182,1.846215 -4.3798712,4.134263 -0.083818,1.447903 0.3839717,2.675281 1.3410908,3.518733 0.7153961,0.630437 1.2816642,0.932134 2.0479002,1.091084 1.9568872,0.405944 3.5602382,-0.30962 5.1567972,-2.301441 0.318426,-0.397259 0.634549,-0.704293 0.702495,-0.682297 0.06794,0.022 0.202153,0.203728 0.298238,0.403848 0.09609,0.200121 0.465871,0.769869 0.821746,1.266106 0.355875,0.496238 0.647448,0.950746 0.647939,1.010019 9.55e-4,0.114439 -1.003875,1.185437 -1.560846,1.663638 -0.82796,0.710865 -2.279488,1.454235 -3.21488,1.646437 -1.071947,0.220259 -1.927489,0.260513 -2.8659712,0.134844 z"
       id="path30387"
       transform="matrix(0.26458333,0,0,0.26458333,42.862495,88.899994)" />
    <path
       style="opacity:0;fill:#860000;fill-opacity:1;stroke-width:1.71106;stroke-linecap:round;stroke-linejoin:round"
       d="M 9.4470918,25.472063 C 8.1602107,25.299742 6.8237781,24.782854 5.9442375,24.117278 5.2861502,23.619281 4.4525621,22.681371 4.0102482,21.941251 1.7708123,18.194025 3.0697789,13.423342 6.8995614,11.329742 7.6215273,10.93507 8.5724798,10.639815 9.6003079,10.491207 c 0.8025411,-0.116036 1.0649491,-0.109852 1.9824971,0.04672 2.586206,0.441317 4.427974,1.774052 6.371625,4.610622 0.829704,1.210871 1.20411,1.788793 1.326324,2.04728 0.341116,0.721464 2.27763,3.333166 2.896791,3.906788 2.346899,2.174293 5.923042,1.587091 7.254325,-1.191158 0.454075,-0.947607 0.591801,-2.12783 0.341674,-2.927924 -0.0091,-0.02919 -0.05583,-0.196372 -0.103794,-0.371515 -0.242869,-0.886898 -1.086847,-1.936438 -2.018431,-2.510048 -1.213323,-0.747087 -3.225205,-0.677783 -4.655396,0.160365 -0.497394,0.291492 -1.817154,1.634082 -1.999331,2.033917 -0.0629,0.138057 -0.171575,0.272966 -0.241493,0.299796 -0.140376,0.05387 -1.06651,-1.108437 -1.497144,-1.878927 -0.15106,-0.270275 -0.318589,-0.518562 -0.372287,-0.551749 -0.194099,-0.11996 -0.08327,-0.283643 0.778082,-1.149141 0.989233,-0.993994 1.591621,-1.43304 2.582833,-1.882477 1.740254,-0.789069 4.113078,-0.880079 5.882398,-0.22562 2.20387,0.815196 4.143384,2.983467 4.627374,5.173148 0.796724,3.604574 -0.748586,7.020379 -3.911769,8.646708 -2.438314,1.253642 -5.3597,1.039603 -7.774387,-0.569602 -0.701292,-0.467357 -1.859482,-1.577254 -2.336438,-2.239015 -0.16831,-0.233524 -0.334944,-0.448472 -0.370299,-0.477662 -0.110344,-0.0911 -1.329989,-1.934785 -1.966138,-2.972119 -2.248548,-3.666593 -3.729266,-4.882766 -5.94487,-4.882766 -2.2915231,0 -4.2474182,1.846215 -4.3798712,4.134263 -0.083818,1.447903 0.3839717,2.675281 1.3410908,3.518733 0.7153961,0.630437 1.2816642,0.932134 2.0479002,1.091084 1.9568872,0.405944 3.5602382,-0.30962 5.1567972,-2.301441 0.318426,-0.397259 0.634549,-0.704293 0.702495,-0.682297 0.06794,0.022 0.202153,0.203728 0.298238,0.403848 0.09609,0.200121 0.465871,0.769869 0.821746,1.266106 0.355875,0.496238 0.647448,0.950746 0.647939,1.010019 9.55e-4,0.114439 -1.003875,1.185437 -1.560846,1.663638 -0.82796,0.710865 -2.279488,1.454235 -3.21488,1.646437 -1.071947,0.220259 -1.927489,0.260513 -2.8659712,0.134844 z"
       id="path30426"
       transform="matrix(0.26458333,0,0,0.26458333,42.862495,88.899994)" />
    <path
       style="opacity:0;fill:#860000;fill-opacity:1;stroke-width:1.71106;stroke-linecap:round;stroke-linejoin:round"
       d="M 9.4470918,25.472063 C 8.1602107,25.299742 6.8237781,24.782854 5.9442375,24.117278 5.2861502,23.619281 4.4525621,22.681371 4.0102482,21.941251 1.7708123,18.194025 3.0697789,13.423342 6.8995614,11.329742 7.6215273,10.93507 8.5724798,10.639815 9.6003079,10.491207 c 0.8025411,-0.116036 1.0649491,-0.109852 1.9824971,0.04672 2.586206,0.441317 4.427974,1.774052 6.371625,4.610622 0.829704,1.210871 1.20411,1.788793 1.326324,2.04728 0.341116,0.721464 2.27763,3.333166 2.896791,3.906788 2.346899,2.174293 5.923042,1.587091 7.254325,-1.191158 0.454075,-0.947607 0.591801,-2.12783 0.341674,-2.927924 -0.0091,-0.02919 -0.05583,-0.196372 -0.103794,-0.371515 -0.242869,-0.886898 -1.086847,-1.936438 -2.018431,-2.510048 -1.213323,-0.747087 -3.225205,-0.677783 -4.655396,0.160365 -0.497394,0.291492 -1.817154,1.634082 -1.999331,2.033917 -0.0629,0.138057 -0.171575,0.272966 -0.241493,0.299796 -0.140376,0.05387 -1.06651,-1.108437 -1.497144,-1.878927 -0.15106,-0.270275 -0.318589,-0.518562 -0.372287,-0.551749 -0.194099,-0.11996 -0.08327,-0.283643 0.778082,-1.149141 0.989233,-0.993994 1.591621,-1.43304 2.582833,-1.882477 1.740254,-0.789069 4.113078,-0.880079 5.882398,-0.22562 2.20387,0.815196 4.143384,2.983467 4.627374,5.173148 0.796724,3.604574 -0.748586,7.020379 -3.911769,8.646708 -2.438314,1.253642 -5.3597,1.039603 -7.774387,-0.569602 -0.701292,-0.467357 -1.859482,-1.577254 -2.336438,-2.239015 -0.16831,-0.233524 -0.334944,-0.448472 -0.370299,-0.477662 -0.110344,-0.0911 -1.329989,-1.934785 -1.966138,-2.972119 -2.248548,-3.666593 -3.729266,-4.882766 -5.94487,-4.882766 -2.2915231,0 -4.2474182,1.846215 -4.3798712,4.134263 -0.083818,1.447903 0.3839717,2.675281 1.3410908,3.518733 0.7153961,0.630437 1.2816642,0.932134 2.0479002,1.091084 1.9568872,0.405944 3.5602382,-0.30962 5.1567972,-2.301441 0.318426,-0.397259 0.634549,-0.704293 0.702495,-0.682297 0.06794,0.022 0.202153,0.203728 0.298238,0.403848 0.09609,0.200121 0.465871,0.769869 0.821746,1.266106 0.355875,0.496238 0.647448,0.950746 0.647939,1.010019 9.55e-4,0.114439 -1.003875,1.185437 -1.560846,1.663638 -0.82796,0.710865 -2.279488,1.454235 -3.21488,1.646437 -1.071947,0.220259 -1.927489,0.260513 -2.8659712,0.134844 z"
       id="path30465"
       transform="matrix(0.26458333,0,0,0.26458333,42.862495,88.899994)" />
    <path
       style="opacity:0;fill:#860000;fill-opacity:1;stroke-width:1.71106;stroke-linecap:round;stroke-linejoin:round"
       d="M 9.4470918,25.472063 C 8.1602107,25.299742 6.8237781,24.782854 5.9442375,24.117278 5.2861502,23.619281 4.4525621,22.681371 4.0102482,21.941251 1.7708123,18.194025 3.0697789,13.423342 6.8995614,11.329742 7.6215273,10.93507 8.5724798,10.639815 9.6003079,10.491207 c 0.8025411,-0.116036 1.0649491,-0.109852 1.9824971,0.04672 2.586206,0.441317 4.427974,1.774052 6.371625,4.610622 0.829704,1.210871 1.20411,1.788793 1.326324,2.04728 0.341116,0.721464 2.27763,3.333166 2.896791,3.906788 2.346899,2.174293 5.923042,1.587091 7.254325,-1.191158 0.454075,-0.947607 0.591801,-2.12783 0.341674,-2.927924 -0.0091,-0.02919 -0.05583,-0.196372 -0.103794,-0.371515 -0.242869,-0.886898 -1.086847,-1.936438 -2.018431,-2.510048 -1.213323,-0.747087 -3.225205,-0.677783 -4.655396,0.160365 -0.497394,0.291492 -1.817154,1.634082 -1.999331,2.033917 -0.0629,0.138057 -0.171575,0.272966 -0.241493,0.299796 -0.140376,0.05387 -1.06651,-1.108437 -1.497144,-1.878927 -0.15106,-0.270275 -0.318589,-0.518562 -0.372287,-0.551749 -0.194099,-0.11996 -0.08327,-0.283643 0.778082,-1.149141 0.989233,-0.993994 1.591621,-1.43304 2.582833,-1.882477 1.740254,-0.789069 4.113078,-0.880079 5.882398,-0.22562 2.20387,0.815196 4.143384,2.983467 4.627374,5.173148 0.796724,3.604574 -0.748586,7.020379 -3.911769,8.646708 -2.438314,1.253642 -5.3597,1.039603 -7.774387,-0.569602 -0.701292,-0.467357 -1.859482,-1.577254 -2.336438,-2.239015 -0.16831,-0.233524 -0.334944,-0.448472 -0.370299,-0.477662 -0.110344,-0.0911 -1.329989,-1.934785 -1.966138,-2.972119 -2.248548,-3.666593 -3.729266,-4.882766 -5.94487,-4.882766 -2.2915231,0 -4.2474182,1.846215 -4.3798712,4.134263 -0.083818,1.447903 0.3839717,2.675281 1.3410908,3.518733 0.7153961,0.630437 1.2816642,0.932134 2.0479002,1.091084 1.9568872,0.405944 3.5602382,-0.30962 5.1567972,-2.301441 0.318426,-0.397259 0.634549,-0.704293 0.702495,-0.682297 0.06794,0.022 0.202153,0.203728 0.298238,0.403848 0.09609,0.200121 0.465871,0.769869 0.821746,1.266106 0.355875,0.496238 0.647448,0.950746 0.647939,1.010019 9.55e-4,0.114439 -1.003875,1.185437 -1.560846,1.663638 -0.82796,0.710865 -2.279488,1.454235 -3.21488,1.646437 -1.071947,0.220259 -1.927489,0.260513 -2.8659712,0.134844 z"
       id="path30504"
       transform="matrix(0.26458333,0,0,0.26458333,42.862495,88.899994)" />
    <path
       style="opacity:0;fill:#860000;fill-opacity:1;stroke-width:1.71106;stroke-linecap:round;stroke-linejoin:round"
       d="M 9.4470918,25.472063 C 8.1602107,25.299742 6.8237781,24.782854 5.9442375,24.117278 5.2861502,23.619281 4.4525621,22.681371 4.0102482,21.941251 1.7708123,18.194025 3.0697789,13.423342 6.8995614,11.329742 7.6215273,10.93507 8.5724798,10.639815 9.6003079,10.491207 c 0.8025411,-0.116036 1.0649491,-0.109852 1.9824971,0.04672 2.586206,0.441317 4.427974,1.774052 6.371625,4.610622 0.829704,1.210871 1.20411,1.788793 1.326324,2.04728 0.341116,0.721464 2.27763,3.333166 2.896791,3.906788 2.346899,2.174293 5.923042,1.587091 7.254325,-1.191158 0.454075,-0.947607 0.591801,-2.12783 0.341674,-2.927924 -0.0091,-0.02919 -0.05583,-0.196372 -0.103794,-0.371515 -0.242869,-0.886898 -1.086847,-1.936438 -2.018431,-2.510048 -1.213323,-0.747087 -3.225205,-0.677783 -4.655396,0.160365 -0.497394,0.291492 -1.817154,1.634082 -1.999331,2.033917 -0.0629,0.138057 -0.171575,0.272966 -0.241493,0.299796 -0.140376,0.05387 -1.06651,-1.108437 -1.497144,-1.878927 -0.15106,-0.270275 -0.318589,-0.518562 -0.372287,-0.551749 -0.194099,-0.11996 -0.08327,-0.283643 0.778082,-1.149141 0.989233,-0.993994 1.591621,-1.43304 2.582833,-1.882477 1.740254,-0.789069 4.113078,-0.880079 5.882398,-0.22562 2.20387,0.815196 4.143384,2.983467 4.627374,5.173148 0.796724,3.604574 -0.748586,7.020379 -3.911769,8.646708 -2.438314,1.253642 -5.3597,1.039603 -7.774387,-0.569602 -0.701292,-0.467357 -1.859482,-1.577254 -2.336438,-2.239015 -0.16831,-0.233524 -0.334944,-0.448472 -0.370299,-0.477662 -0.110344,-0.0911 -1.329989,-1.934785 -1.966138,-2.972119 -2.248548,-3.666593 -3.729266,-4.882766 -5.94487,-4.882766 -2.2915231,0 -4.2474182,1.846215 -4.3798712,4.134263 -0.083818,1.447903 0.3839717,2.675281 1.3410908,3.518733 0.7153961,0.630437 1.2816642,0.932134 2.0479002,1.091084 1.9568872,0.405944 3.5602382,-0.30962 5.1567972,-2.301441 0.318426,-0.397259 0.634549,-0.704293 0.702495,-0.682297 0.06794,0.022 0.202153,0.203728 0.298238,0.403848 0.09609,0.200121 0.465871,0.769869 0.821746,1.266106 0.355875,0.496238 0.647448,0.950746 0.647939,1.010019 9.55e-4,0.114439 -1.003875,1.185437 -1.560846,1.663638 -0.82796,0.710865 -2.279488,1.454235 -3.21488,1.646437 -1.071947,0.220259 -1.927489,0.260513 -2.8659712,0.134844 z"
       id="path30543"
       transform="matrix(0.26458333,0,0,0.26458333,42.862495,88.899994)" />
    <path
       style="opacity:0;fill:#860000;fill-opacity:1;stroke-width:1.71106;stroke-linecap:round;stroke-linejoin:round"
       d="M 9.4470918,25.472063 C 8.1602107,25.299742 6.8237781,24.782854 5.9442375,24.117278 5.2861502,23.619281 4.4525621,22.681371 4.0102482,21.941251 1.7708123,18.194025 3.0697789,13.423342 6.8995614,11.329742 7.6215273,10.93507 8.5724798,10.639815 9.6003079,10.491207 c 0.8025411,-0.116036 1.0649491,-0.109852 1.9824971,0.04672 2.586206,0.441317 4.427974,1.774052 6.371625,4.610622 0.829704,1.210871 1.20411,1.788793 1.326324,2.04728 0.341116,0.721464 2.27763,3.333166 2.896791,3.906788 2.346899,2.174293 5.923042,1.587091 7.254325,-1.191158 0.454075,-0.947607 0.591801,-2.12783 0.341674,-2.927924 -0.0091,-0.02919 -0.05583,-0.196372 -0.103794,-0.371515 -0.242869,-0.886898 -1.086847,-1.936438 -2.018431,-2.510048 -1.213323,-0.747087 -3.225205,-0.677783 -4.655396,0.160365 -0.497394,0.291492 -1.817154,1.634082 -1.999331,2.033917 -0.0629,0.138057 -0.171575,0.272966 -0.241493,0.299796 -0.140376,0.05387 -1.06651,-1.108437 -1.497144,-1.878927 -0.15106,-0.270275 -0.318589,-0.518562 -0.372287,-0.551749 -0.194099,-0.11996 -0.08327,-0.283643 0.778082,-1.149141 0.989233,-0.993994 1.591621,-1.43304 2.582833,-1.882477 1.740254,-0.789069 4.113078,-0.880079 5.882398,-0.22562 2.20387,0.815196 4.143384,2.983467 4.627374,5.173148 0.796724,3.604574 -0.748586,7.020379 -3.911769,8.646708 -2.438314,1.253642 -5.3597,1.039603 -7.774387,-0.569602 -0.701292,-0.467357 -1.859482,-1.577254 -2.336438,-2.239015 -0.16831,-0.233524 -0.334944,-0.448472 -0.370299,-0.477662 -0.110344,-0.0911 -1.329989,-1.934785 -1.966138,-2.972119 -2.248548,-3.666593 -3.729266,-4.882766 -5.94487,-4.882766 -2.2915231,0 -4.2474182,1.846215 -4.3798712,4.134263 -0.083818,1.447903 0.3839717,2.675281 1.3410908,3.518733 0.7153961,0.630437 1.2816642,0.932134 2.0479002,1.091084 1.9568872,0.405944 3.5602382,-0.30962 5.1567972,-2.301441 0.318426,-0.397259 0.634549,-0.704293 0.702495,-0.682297 0.06794,0.022 0.202153,0.203728 0.298238,0.403848 0.09609,0.200121 0.465871,0.769869 0.821746,1.266106 0.355875,0.496238 0.647448,0.950746 0.647939,1.010019 9.55e-4,0.114439 -1.003875,1.185437 -1.560846,1.663638 -0.82796,0.710865 -2.279488,1.454235 -3.21488,1.646437 -1.071947,0.220259 -1.927489,0.260513 -2.8659712,0.134844 z"
       id="path30582"
       transform="matrix(0.26458333,0,0,0.26458333,42.862495,88.899994)" />
    <path
       style="opacity:0;fill:#860000;fill-opacity:1;stroke-width:1.71106;stroke-linecap:round;stroke-linejoin:round"
       d="M 9.4470918,25.472063 C 8.1602107,25.299742 6.8237781,24.782854 5.9442375,24.117278 5.2861502,23.619281 4.4525621,22.681371 4.0102482,21.941251 1.7708123,18.194025 3.0697789,13.423342 6.8995614,11.329742 7.6215273,10.93507 8.5724798,10.639815 9.6003079,10.491207 c 0.8025411,-0.116036 1.0649491,-0.109852 1.9824971,0.04672 2.586206,0.441317 4.427974,1.774052 6.371625,4.610622 0.829704,1.210871 1.20411,1.788793 1.326324,2.04728 0.341116,0.721464 2.27763,3.333166 2.896791,3.906788 2.346899,2.174293 5.923042,1.587091 7.254325,-1.191158 0.454075,-0.947607 0.591801,-2.12783 0.341674,-2.927924 -0.0091,-0.02919 -0.05583,-0.196372 -0.103794,-0.371515 -0.242869,-0.886898 -1.086847,-1.936438 -2.018431,-2.510048 -1.213323,-0.747087 -3.225205,-0.677783 -4.655396,0.160365 -0.497394,0.291492 -1.817154,1.634082 -1.999331,2.033917 -0.0629,0.138057 -0.171575,0.272966 -0.241493,0.299796 -0.140376,0.05387 -1.06651,-1.108437 -1.497144,-1.878927 -0.15106,-0.270275 -0.318589,-0.518562 -0.372287,-0.551749 -0.194099,-0.11996 -0.08327,-0.283643 0.778082,-1.149141 0.989233,-0.993994 1.591621,-1.43304 2.582833,-1.882477 1.740254,-0.789069 4.113078,-0.880079 5.882398,-0.22562 2.20387,0.815196 4.143384,2.983467 4.627374,5.173148 0.796724,3.604574 -0.748586,7.020379 -3.911769,8.646708 -2.438314,1.253642 -5.3597,1.039603 -7.774387,-0.569602 -0.701292,-0.467357 -1.859482,-1.577254 -2.336438,-2.239015 -0.16831,-0.233524 -0.334944,-0.448472 -0.370299,-0.477662 -0.110344,-0.0911 -1.329989,-1.934785 -1.966138,-2.972119 -2.248548,-3.666593 -3.729266,-4.882766 -5.94487,-4.882766 -2.2915231,0 -4.2474182,1.846215 -4.3798712,4.134263 -0.083818,1.447903 0.3839717,2.675281 1.3410908,3.518733 0.7153961,0.630437 1.2816642,0.932134 2.0479002,1.091084 1.9568872,0.405944 3.5602382,-0.30962 5.1567972,-2.301441 0.318426,-0.397259 0.634549,-0.704293 0.702495,-0.682297 0.06794,0.022 0.202153,0.203728 0.298238,0.403848 0.09609,0.200121 0.465871,0.769869 0.821746,1.266106 0.355875,0.496238 0.647448,0.950746 0.647939,1.010019 9.55e-4,0.114439 -1.003875,1.185437 -1.560846,1.663638 -0.82796,0.710865 -2.279488,1.454235 -3.21488,1.646437 -1.071947,0.220259 -1.927489,0.260513 -2.8659712,0.134844 z"
       id="path30621"
       transform="matrix(0.26458333,0,0,0.26458333,42.862495,88.899994)" />
    <path
       style="opacity:0;fill:#860000;fill-opacity:1;stroke-width:1.71106;stroke-linecap:round;stroke-linejoin:round"
       d="M 9.4470918,25.472063 C 8.1602107,25.299742 6.8237781,24.782854 5.9442375,24.117278 5.2861502,23.619281 4.4525621,22.681371 4.0102482,21.941251 1.7708123,18.194025 3.0697789,13.423342 6.8995614,11.329742 7.6215273,10.93507 8.5724798,10.639815 9.6003079,10.491207 c 0.8025411,-0.116036 1.0649491,-0.109852 1.9824971,0.04672 2.586206,0.441317 4.427974,1.774052 6.371625,4.610622 0.829704,1.210871 1.20411,1.788793 1.326324,2.04728 0.341116,0.721464 2.27763,3.333166 2.896791,3.906788 2.346899,2.174293 5.923042,1.587091 7.254325,-1.191158 0.454075,-0.947607 0.591801,-2.12783 0.341674,-2.927924 -0.0091,-0.02919 -0.05583,-0.196372 -0.103794,-0.371515 -0.242869,-0.886898 -1.086847,-1.936438 -2.018431,-2.510048 -1.213323,-0.747087 -3.225205,-0.677783 -4.655396,0.160365 -0.497394,0.291492 -1.817154,1.634082 -1.999331,2.033917 -0.0629,0.138057 -0.171575,0.272966 -0.241493,0.299796 -0.140376,0.05387 -1.06651,-1.108437 -1.497144,-1.878927 -0.15106,-0.270275 -0.318589,-0.518562 -0.372287,-0.551749 -0.194099,-0.11996 -0.08327,-0.283643 0.778082,-1.149141 0.989233,-0.993994 1.591621,-1.43304 2.582833,-1.882477 1.740254,-0.789069 4.113078,-0.880079 5.882398,-0.22562 2.20387,0.815196 4.143384,2.983467 4.627374,5.173148 0.796724,3.604574 -0.748586,7.020379 -3.911769,8.646708 -2.438314,1.253642 -5.3597,1.039603 -7.774387,-0.569602 -0.701292,-0.467357 -1.859482,-1.577254 -2.336438,-2.239015 -0.16831,-0.233524 -0.334944,-0.448472 -0.370299,-0.477662 -0.110344,-0.0911 -1.329989,-1.934785 -1.966138,-2.972119 -2.248548,-3.666593 -3.729266,-4.882766 -5.94487,-4.882766 -2.2915231,0 -4.2474182,1.846215 -4.3798712,4.134263 -0.083818,1.447903 0.3839717,2.675281 1.3410908,3.518733 0.7153961,0.630437 1.2816642,0.932134 2.0479002,1.091084 1.9568872,0.405944 3.5602382,-0.30962 5.1567972,-2.301441 0.318426,-0.397259 0.634549,-0.704293 0.702495,-0.682297 0.06794,0.022 0.202153,0.203728 0.298238,0.403848 0.09609,0.200121 0.465871,0.769869 0.821746,1.266106 0.355875,0.496238 0.647448,0.950746 0.647939,1.010019 9.55e-4,0.114439 -1.003875,1.185437 -1.560846,1.663638 -0.82796,0.710865 -2.279488,1.454235 -3.21488,1.646437 -1.071947,0.220259 -1.927489,0.260513 -2.8659712,0.134844 z"
       id="path30660"
       transform="matrix(0.26458333,0,0,0.26458333,42.862495,88.899994)" />
    <path
       style="opacity:0;fill:#860000;fill-opacity:1;stroke-width:1.71106;stroke-linecap:round;stroke-linejoin:round"
       d="M 9.4470918,25.472063 C 8.1602107,25.299742 6.8237781,24.782854 5.9442375,24.117278 5.2861502,23.619281 4.4525621,22.681371 4.0102482,21.941251 1.7708123,18.194025 3.0697789,13.423342 6.8995614,11.329742 7.6215273,10.93507 8.5724798,10.639815 9.6003079,10.491207 c 0.8025411,-0.116036 1.0649491,-0.109852 1.9824971,0.04672 2.586206,0.441317 4.427974,1.774052 6.371625,4.610622 0.829704,1.210871 1.20411,1.788793 1.326324,2.04728 0.341116,0.721464 2.27763,3.333166 2.896791,3.906788 2.346899,2.174293 5.923042,1.587091 7.254325,-1.191158 0.454075,-0.947607 0.591801,-2.12783 0.341674,-2.927924 -0.0091,-0.02919 -0.05583,-0.196372 -0.103794,-0.371515 -0.242869,-0.886898 -1.086847,-1.936438 -2.018431,-2.510048 -1.213323,-0.747087 -3.225205,-0.677783 -4.655396,0.160365 -0.497394,0.291492 -1.817154,1.634082 -1.999331,2.033917 -0.0629,0.138057 -0.171575,0.272966 -0.241493,0.299796 -0.140376,0.05387 -1.06651,-1.108437 -1.497144,-1.878927 -0.15106,-0.270275 -0.318589,-0.518562 -0.372287,-0.551749 -0.194099,-0.11996 -0.08327,-0.283643 0.778082,-1.149141 0.989233,-0.993994 1.591621,-1.43304 2.582833,-1.882477 1.740254,-0.789069 4.113078,-0.880079 5.882398,-0.22562 2.20387,0.815196 4.143384,2.983467 4.627374,5.173148 0.796724,3.604574 -0.748586,7.020379 -3.911769,8.646708 -2.438314,1.253642 -5.3597,1.039603 -7.774387,-0.569602 -0.701292,-0.467357 -1.859482,-1.577254 -2.336438,-2.239015 -0.16831,-0.233524 -0.334944,-0.448472 -0.370299,-0.477662 -0.110344,-0.0911 -1.329989,-1.934785 -1.966138,-2.972119 -2.248548,-3.666593 -3.729266,-4.882766 -5.94487,-4.882766 -2.2915231,0 -4.2474182,1.846215 -4.3798712,4.134263 -0.083818,1.447903 0.3839717,2.675281 1.3410908,3.518733 0.7153961,0.630437 1.2816642,0.932134 2.0479002,1.091084 1.9568872,0.405944 3.5602382,-0.30962 5.1567972,-2.301441 0.318426,-0.397259 0.634549,-0.704293 0.702495,-0.682297 0.06794,0.022 0.202153,0.203728 0.298238,0.403848 0.09609,0.200121 0.465871,0.769869 0.821746,1.266106 0.355875,0.496238 0.647448,0.950746 0.647939,1.010019 9.55e-4,0.114439 -1.003875,1.185437 -1.560846,1.663638 -0.82796,0.710865 -2.279488,1.454235 -3.21488,1.646437 -1.071947,0.220259 -1.927489,0.260513 -2.8659712,0.134844 z"
       id="path30662"
       transform="matrix(0.26458333,0,0,0.26458333,42.862495,88.899994)" />
    <path
       style="opacity:0.639;fill:#860000;fill-opacity:1;stroke-width:0;stroke-linecap:butt;stroke-linejoin:miter;stroke:none;stroke-opacity:1;stroke-miterlimit:1.60000002;stroke-dasharray:none"
       d="m 44.916288,96.075387 c -0.4079,-0.05462 -0.831506,-0.218456 -1.110292,-0.429422 -0.208592,-0.15785 -0.472813,-0.455136 -0.613012,-0.689731 -0.709829,-1.18775 -0.298099,-2.699902 0.915819,-3.363506 0.228839,-0.125099 0.530261,-0.218685 0.856049,-0.265788 0.25438,-0.03679 0.337555,-0.03483 0.628388,0.01481 0.819744,0.139884 1.403525,0.562319 2.0196,1.461419 0.26299,0.383807 0.381664,0.56699 0.420402,0.648923 0.108122,0.228679 0.721935,1.056506 0.91819,1.238325 0.743891,0.689181 1.877412,0.503057 2.299385,-0.377559 0.143928,-0.300361 0.187583,-0.674452 0.108301,-0.928057 -0.0029,-0.0092 -0.01769,-0.06225 -0.03291,-0.117758 -0.07698,-0.281118 -0.344496,-0.613789 -0.639778,-0.795605 -0.384585,-0.236802 -1.022286,-0.214836 -1.475611,0.05083 -0.157657,0.0924 -0.575979,0.517952 -0.633723,0.644686 -0.01993,0.04376 -0.05438,0.08652 -0.07654,0.09503 -0.0445,0.01707 -0.33805,-0.351339 -0.474547,-0.59556 -0.04788,-0.08567 -0.100982,-0.164367 -0.118003,-0.174886 -0.06152,-0.03803 -0.02639,-0.08991 0.246628,-0.364241 0.313553,-0.315064 0.504492,-0.454228 0.818674,-0.596684 0.551604,-0.25011 1.303714,-0.278957 1.864531,-0.07151 0.698555,0.258392 1.313319,0.945664 1.466727,1.639722 0.252537,1.142534 -0.237276,2.225235 -1.239904,2.740729 -0.772867,0.397362 -1.698852,0.329519 -2.46423,-0.180546 -0.222287,-0.148138 -0.589396,-0.499939 -0.740575,-0.709696 -0.05335,-0.07402 -0.106168,-0.142152 -0.117373,-0.151404 -0.03498,-0.02887 -0.421564,-0.613264 -0.623203,-0.942065 -0.712717,-1.162192 -1.182057,-1.547679 -1.884332,-1.547679 -0.726339,0 -1.346294,0.585189 -1.388277,1.310428 -0.02656,0.458938 0.121707,0.847977 0.425082,1.115324 0.226757,0.199828 0.406246,0.295456 0.649118,0.345839 0.62027,0.128671 1.128481,-0.09814 1.634539,-0.729483 0.100931,-0.125919 0.201131,-0.223238 0.222667,-0.216266 0.02153,0.007 0.06408,0.06457 0.09453,0.128007 0.03046,0.06343 0.147666,0.244023 0.260467,0.401314 0.112801,0.157292 0.20522,0.301357 0.205376,0.320144 3.03e-4,0.03627 -0.318196,0.375745 -0.494739,0.527319 -0.262436,0.225322 -0.722524,0.460946 -1.019013,0.521868 -0.339773,0.06981 -0.610952,0.08257 -0.908419,0.04274 z"
       id="path30664" />
  </g>
</svg>
